<svg xmlns="http://www.w3.org/2000/svg" width="16" height="16" viewBox="0 0 4.233 4.233"><path d="M0 0h4.233v4.233H0z" style="fill:#fff;fill-opacity:1;stroke:none;stroke-width:2.11667;paint-order:markers stroke fill"/><path d="M.265 1.058v2.117a.265.265 45 0 0 .264.265h2.662c.431 0 .778-.354.778-.794V1.587a.796.796 0 0 0-.803-.793H.53a.265.265 135 0 0-.264.264Z" style="fill:#000;fill-opacity:1;stroke:none;stroke-width:2.11667;paint-order:markers stroke fill"/><path d="M.794 1.323V2.91H3.067c.207 0 .373-.177.373-.397v-.785a.4.4 0 0 0-.397-.405H1.058Z" style="fill:#fff;fill-opacity:1;stroke:none;stroke-width:2.11667;paint-order:markers stroke fill"/><path d="M.794 1.852h.794v.529H.794zM2.117 1.852h.794v.529h-.794z" style="fill:#000;fill-opacity:1;stroke:none;stroke-width:2.11667;paint-order:markers stroke fill"/><path d="M1.852.529h.529v3.175h-.529z" style="fill:#fff;fill-opacity:1;stroke:none;stroke-width:2.11667;paint-order:markers stroke fill"/><path d="m1.587 2.117.794-.53v1.059z" style="fill:#000;fill-opacity:1;stroke:none;stroke-width:2.11667;paint-order:markers stroke fill"/></svg>
