<?xml version="1.0" encoding="UTF-8" standalone="no"?>
<svg
   viewBox="0 0 320 320"
   width="320"
   height="320"
   role="img"
   aria-label="read it in a book logo"
   version="1.1"
   id="svg4"
   xmlns="http://www.w3.org/2000/svg"
   xmlns:svg="http://www.w3.org/2000/svg"
   xmlns:rdf="http://www.w3.org/1999/02/22-rdf-syntax-ns#"
   xmlns:cc="http://creativecommons.org/ns#"
   xmlns:dc="http://purl.org/dc/elements/1.1/">
  <defs
     id="defs4" />
  <title
     id="title1">read it in a book</title>
  <!-- Strokes: heavy, black, rounded ends -->
  <g
     fill="none"
     stroke="#000"
     stroke-width="14"
     stroke-linecap="round"
     stroke-linejoin="round"
     id="g4">
    <!-- Outer box: square frame with rounded top corners -->
    <path
       d="M 37,289 L 37,61 Q 37,39 59,39 L 261,39 Q 283,39 283,61 L 283,289 Z"
       id="path1" />
    <!-- Side-flap seams: meet the book's page edges -->
    <line
       x1="62"
       y1="46"
       x2="62"
       y2="171"
       stroke-width="13"
       id="line1" />
    <line
       x1="258"
       y1="46"
       x2="258"
       y2="155"
       stroke-width="13"
       id="line2" />
    <!-- Eyes: two rings -->
    <circle
       cx="124"
       cy="103"
       r="20"
       stroke-width="13"
       id="circle2" />
    <circle
       cx="196"
       cy="103"
       r="20"
       stroke-width="13"
       id="circle3" />
    <!-- Open book: two page curves dipping to a centre gutter (a V valley),
         page edges higher than the gutter, whole form tilted up to the right -->
    <g
       transform="translate(-15 5)"
       id="g3">
      <path
         d="m 54,170 c 47.50365,-3.59124 95.66667,5.24574 121,11.91241 39.93066,-21.67518 68.91728,-30.41606 123,-34.49635"
         stroke-width="13"
         id="path3" />
    </g>
  </g>
  <!-- Wordmark "in a book": Futura Bold, outlined -->
  <path
     fill="#000"
     d="M60.44828166407269 247.83140537584654V272.0H51.92096075379632V247.83140537584654ZM51.355613511126066 238.55028814200983Q51.355613511126066 237.5609304673369 51.73251167290624 236.68935346822025Q52.10940983468641 235.8177764691036 52.76898161780171 235.1582046859883Q53.428553400917004 234.498632902873 54.30013040003365 234.12173474109284Q55.17170739915029 233.74483657931268 56.161065073823245 233.74483657931268Q57.1504227484962 233.74483657931268 58.02199974761284 234.12173474109284Q58.89357674672948 234.498632902873 59.553148529844776 235.1582046859883Q60.21272031296008 235.8177764691036 60.58961847474025 236.68935346822025Q60.966516636520424 237.5609304673369 60.966516636520424 238.55028814200983Q60.966516636520424 239.5396458166828 60.58961847474025 240.41122281579942Q60.21272031296008 241.28279981491607 59.553148529844776 241.94237159803137Q58.89357674672948 242.60194338114667 58.02199974761284 242.97884154292683Q57.1504227484962 243.35573970470702 56.161065073823245 243.35573970470702Q55.17170739915029 243.35573970470702 54.30013040003365 242.97884154292683Q53.428553400917004 242.60194338114667 52.76898161780171 241.94237159803137Q52.10940983468641 241.28279981491607 51.73251167290624 240.41122281579942Q51.355613511126066 239.5396458166828 51.355613511126066 238.55028814200983Z M66.29020317166534 247.83140537584654H74.8175240819417V250.89370294031045Q76.560678080175 248.77365078029698 78.3509443486308 248.0434105918479Q80.14121061708661 247.31317040339883 82.54393639843519 247.31317040339883Q85.08799899045135 247.31317040339883 86.90182139401843 248.13763513229293Q88.7156437975855 248.96209986118706 89.98767509359357 250.46969250830773Q91.02414503848904 251.6946115340933 91.40104320026921 253.20220418121397Q91.77794136204938 254.70979682833467 91.77794136204938 256.64139990745804V272.0H83.25062045177302V259.797922012367Q83.25062045177302 258.0076557439112 82.99150296554916 256.9005173936819Q82.73238547932529 255.79337904345266 82.07281369620998 255.13380726033736Q81.50746645353973 254.5684600176671 80.80078240020191 254.33289866655448Q80.09409834686409 254.09733731544188 79.29318975308122 254.09733731544188Q77.12602532284524 254.09733731544188 75.97177470239347 255.39292474656122Q74.8175240819417 256.68851217768054 74.8175240819417 259.0912379590292V272.0H66.29020317166534Z M112.21524418457915 259.8450342825895Q112.21524418457915 261.02284103815254 112.63925461658184 262.03575484793674Q113.06326504858453 263.04866865772095 113.7935052370336 263.80246498128133Q114.52374542548269 264.55626130484166 115.5366592352669 264.9802717368443Q116.5495730450511 265.40428216884703 117.72737980061414 265.40428216884703Q118.85807428595466 265.40428216884703 119.87098809573887 264.9802717368443Q120.88390190552308 264.55626130484166 121.61414209397216 263.80246498128133Q122.34438228242124 263.04866865772095 122.79194884953519 262.059310983048Q123.23951541664914 261.06995330837503 123.23951541664914 259.93925882303455Q123.23951541664914 258.808564337694 122.79194884953519 257.7956505279098Q122.34438228242124 256.7827367181256 121.61414209397216 256.02894039456527Q120.88390190552308 255.27514407100492 119.87098809573887 254.85113363900223Q118.85807428595466 254.42712320699954 117.72737980061414 254.42712320699954Q116.5495730450511 254.42712320699954 115.5366592352669 254.85113363900223Q114.52374542548269 255.27514407100492 113.7935052370336 256.02894039456527Q113.06326504858453 256.7827367181256 112.63925461658184 257.7485382576873Q112.21524418457915 258.71433979724895 112.21524418457915 259.8450342825895ZM122.956841795314 247.83140537584654H131.5312749758129V272.0H122.956841795314V269.31460059731626Q120.22433012240778 272.7537963235603 115.56021537037816 272.7537963235603Q112.92192823791697 272.7537963235603 110.70765153745847 271.78799478399867Q108.49337483699996 270.82219324443696 106.84444537921172 269.0790392462037Q105.19551592142346 267.3358852479704 104.2768266520843 264.9802717368443Q103.35813738274513 262.62465822571824 103.35813738274513 259.8450342825895Q103.35813738274513 257.2538594203508 104.25327051697303 254.921802044336Q105.14840365120095 252.5897446683212 106.75022083876667 250.84659067008792Q108.3520380263324 249.10343667185464 110.56631472679089 248.09052286207043Q112.7805914272494 247.07760905228622 115.46599082993312 247.07760905228622Q119.98876877129517 247.07760905228622 122.956841795314 250.23413115719512Z M163.32263492197032 259.98637109325705Q163.32263492197032 258.85567660791656 162.89862448996763 257.84276279813236Q162.4746140579649 256.82984898834815 161.7208177344046 256.07605266478777Q160.96702141084424 255.32225634122744 159.97766373617128 254.8746897741135Q158.98830606149835 254.42712320699954 157.8104993059353 254.42712320699954Q156.6798048205948 254.42712320699954 155.69044714592184 254.85113363900223Q154.7010894712489 255.27514407100492 153.9708492827998 256.02894039456527Q153.24060909435073 256.7827367181256 152.79304252723676 257.7956505279098Q152.34547596012283 258.808564337694 152.34547596012283 259.93925882303455Q152.34547596012283 261.06995330837503 152.76948639212551 262.059310983048Q153.1934968241282 263.04866865772095 153.94729314768855 263.77890884617Q154.7010894712489 264.5091490346191 155.71400328103311 264.9567156017331Q156.72691709081732 265.40428216884703 157.85761157615784 265.40428216884703Q158.98830606149835 265.40428216884703 159.97766373617128 264.9802717368443Q160.96702141084424 264.55626130484166 161.6972615992933 263.80246498128133Q162.42750178774241 263.04866865772095 162.87506835485635 262.059310983048Q163.32263492197032 261.06995330837503 163.32263492197032 259.98637109325705ZM152.58103731123543 232.8968157153073V250.23413115719512Q155.5962226054768 247.07760905228622 160.11900054683886 247.07760905228622Q162.80439994952258 247.07760905228622 165.04223278509232 248.09052286207043Q167.2800656206621 249.10343667185464 168.85832667311655 250.82303453497667Q170.43658772557103 252.54263239809868 171.33172085979893 254.8746897741135Q172.22685399402684 257.2067471501283 172.22685399402684 259.8450342825895Q172.22685399402684 262.53043368527324 171.30816472468769 264.8860471963993Q170.3894754553485 267.24166070752534 168.74054599756028 268.9848147057586Q167.09161653977202 270.7279687039919 164.85378370420227 271.7408825137761Q162.6159508686325 272.7537963235603 160.0247760063938 272.7537963235603Q155.31354898414168 272.7537963235603 152.58103731123543 269.31460059731626V272.0H144.05371640095908V232.8968157153073Z M185.13561603499767 259.797922012367Q185.13561603499767 261.02284103815254 185.5831826021116 262.03575484793674Q186.03074916922557 263.04866865772095 186.76098935767465 263.80246498128133Q187.49122954612375 264.55626130484166 188.50414335590796 264.9802717368443Q189.51705716569217 265.40428216884703 190.64775165103268 265.40428216884703Q191.7784461363732 265.40428216884703 192.7913599461574 264.9802717368443Q193.8042737559416 264.55626130484166 194.53451394439068 263.80246498128133Q195.26475413283976 263.04866865772095 195.7123206999537 262.03575484793674Q196.15988726706766 261.02284103815254 196.15988726706766 259.8450342825895Q196.15988726706766 258.71433979724895 195.7123206999537 257.70142598746475Q195.26475413283976 256.68851217768054 194.53451394439068 255.9347158541202Q193.8042737559416 255.1809195305599 192.7913599461574 254.75690909855717Q191.7784461363732 254.33289866655448 190.64775165103268 254.33289866655448Q189.51705716569217 254.33289866655448 188.50414335590796 254.75690909855717Q187.49122954612375 255.1809195305599 186.76098935767465 255.9347158541202Q186.03074916922557 256.68851217768054 185.5831826021116 257.6778698523535Q185.13561603499767 258.66722752702645 185.13561603499767 259.797922012367ZM176.1371724224961 259.70369747192194Q176.1371724224961 257.0182980692382 177.2207546376141 254.6862406932234Q178.3043368527321 252.3541833172086 180.23593993185546 250.63458545408656Q182.16754301097882 248.91498759096453 184.82938627855128 247.9256299162916Q187.49122954612375 246.93627224161864 190.64775165103268 246.93627224161864Q193.75716148571908 246.93627224161864 196.41900475329152 247.90207378118032Q199.08084802086398 248.86787532074203 201.03600723509862 250.58747318386406Q202.99116644933326 252.30707104698607 204.07474866445125 254.6862406932234Q205.15833087956923 257.06541033946075 205.15833087956923 259.93925882303455Q205.15833087956923 262.81310730660834 204.05119252933997 265.19227695284565Q202.94405417911074 267.571446599083 201.01245109998735 269.29104446220504Q199.08084802086398 271.01064232532707 196.37189248306902 271.9528877297775Q193.66293694527405 272.89513313422793 190.5064148403651 272.89513313422793Q187.3970050056787 272.89513313422793 184.7587178732175 271.9528877297775Q182.12043074075632 271.01064232532707 180.2123837967442 269.26748832709376Q178.3043368527321 267.52433432886045 177.2207546376141 265.09805241240065Q176.1371724224961 262.6717704959408 176.1371724224961 259.70369747192194Z M218.11420519076262 259.797922012367Q218.11420519076262 261.02284103815254 218.56177175787656 262.03575484793674Q219.00933832499052 263.04866865772095 219.7395785134396 263.80246498128133Q220.4698187018887 264.55626130484166 221.4827325116729 264.9802717368443Q222.49564632145712 265.40428216884703 223.62634080679763 265.40428216884703Q224.75703529213814 265.40428216884703 225.76994910192235 264.9802717368443Q226.78286291170656 264.55626130484166 227.51310310015563 263.80246498128133Q228.2433432886047 263.04866865772095 228.69090985571864 262.03575484793674Q229.1384764228326 261.02284103815254 229.1384764228326 259.8450342825895Q229.1384764228326 258.71433979724895 228.69090985571864 257.70142598746475Q228.2433432886047 256.68851217768054 227.51310310015563 255.9347158541202Q226.78286291170656 255.1809195305599 225.76994910192235 254.75690909855717Q224.75703529213814 254.33289866655448 223.62634080679763 254.33289866655448Q222.49564632145712 254.33289866655448 221.4827325116729 254.75690909855717Q220.4698187018887 255.1809195305599 219.7395785134396 255.9347158541202Q219.00933832499052 256.68851217768054 218.56177175787656 257.6778698523535Q218.11420519076262 258.66722752702645 218.11420519076262 259.797922012367ZM209.11576157826104 259.70369747192194Q209.11576157826104 257.0182980692382 210.19934379337906 254.6862406932234Q211.28292600849704 252.3541833172086 213.2145290876204 250.63458545408656Q215.14613216674377 248.91498759096453 217.80797543431623 247.9256299162916Q220.4698187018887 246.93627224161864 223.62634080679763 246.93627224161864Q226.73575064148403 246.93627224161864 229.39759390905647 247.90207378118032Q232.05943717662893 248.86787532074203 234.01459639086357 250.58747318386406Q235.96975560509821 252.30707104698607 237.0533378202162 254.6862406932234Q238.13692003533419 257.06541033946075 238.13692003533419 259.93925882303455Q238.13692003533419 262.81310730660834 237.02978168510492 265.19227695284565Q235.9226433348757 267.571446599083 233.9910402557523 269.29104446220504Q232.05943717662893 271.01064232532707 229.35048163883397 271.9528877297775Q226.641526101039 272.89513313422793 223.48500399613005 272.89513313422793Q220.37559416144364 272.89513313422793 217.73730702898246 271.9528877297775Q215.09901989652127 271.01064232532707 213.19097295250916 269.26748832709376Q211.28292600849704 267.52433432886045 210.19934379337906 265.09805241240065Q209.11576157826104 262.6717704959408 209.11576157826104 259.70369747192194Z M251.56391704875276 232.8968157153073V256.547175367013L260.51524839103183 247.83140537584654H272.1990914062171L260.0912379590291 258.9970134185841L272.90577545955495 272.0H260.9392588230345L251.56391704875276 262.153535523493V272.0H243.0365961384764V232.8968157153073Z"
     id="path4" />
  <metadata
     id="metadata4">
    <rdf:RDF>
      <cc:Work
         rdf:about="">
        <dc:title>read it in a book</dc:title>
      </cc:Work>
    </rdf:RDF>
  </metadata>
</svg>
