<?xml version="1.0" encoding="UTF-8" standalone="no"?>
<!-- Created with Inkscape (http://www.inkscape.org/) -->

<svg
   width="210mm"
   height="297mm"
   viewBox="0 0 210 297"
   version="1.1"
   id="svg1"
   inkscape:version="1.3.2 (091e20e, 2023-11-25)"
   sodipodi:docname="capital-e.svg"
   xmlns:inkscape="http://www.inkscape.org/namespaces/inkscape"
   xmlns:sodipodi="http://sodipodi.sourceforge.net/DTD/sodipodi-0.dtd"
   xmlns="http://www.w3.org/2000/svg"
   xmlns:svg="http://www.w3.org/2000/svg">
  <sodipodi:namedview
     id="namedview1"
     pagecolor="#ffffff"
     bordercolor="#000000"
     borderopacity="0.25"
     inkscape:showpageshadow="2"
     inkscape:pageopacity="0.0"
     inkscape:pagecheckerboard="0"
     inkscape:deskcolor="#d1d1d1"
     inkscape:document-units="mm"
     inkscape:zoom="1.1429369"
     inkscape:cx="560.83584"
     inkscape:cy="876.68879"
     inkscape:window-width="1440"
     inkscape:window-height="847"
     inkscape:window-x="0"
     inkscape:window-y="25"
     inkscape:window-maximized="1"
     inkscape:current-layer="layer1" />
  <defs
     id="defs1" />
  <g
     inkscape:label="Layer 1"
     inkscape:groupmode="layer"
     id="layer1">
    <path
       id="path2"
       style="color:#000000;fill:#000000;stroke:#000000;stroke-width:0.0298914;stroke-dasharray:none;stroke-opacity:1;paint-order:markers stroke fill"
       sodipodi:type="inkscape:offset"
       inkscape:radius="-0.099352263"
       inkscape:original="M 1.6484375 0.6796875 A 0.66361549 0.66361549 0 0 0 0.98046875 1.3398438 L 0.96484375 4.2148438 L 0.94921875 6.9785156 A 0.7761202 0.7761202 0 0 0 1.7207031 7.7578125 L 6.8046875 7.7871094 A 0.52276394 0.52276394 0 0 0 7.3320312 7.2675781 L 7.3359375 6.4902344 L 2.2519531 6.4628906 L 2.2617188 4.8691406 L 6.4257812 4.8691406 L 6.4257812 3.5683594 L 2.2695312 3.5683594 L 2.2773438 1.984375 L 7.328125 2.0117188 L 7.3320312 1.3476562 A 0.63525939 0.63525939 0 0 0 6.7011719 0.70898438 L 1.6484375 0.6796875 z "
       transform="matrix(7.4648214,-7.4685004,7.3406,7.3442176,-2.6444261,57.079643)"
       d="M 1.6484375,0.77929687 C 1.5005871,0.77832498 1.3532083,0.83747473 1.2480469,0.94140625 1.1428854,1.0453378 1.0808456,1.1919921 1.0800781,1.3398437 l -0.015625,2.875 -0.015625,2.7636719 C 1.0481006,7.1554823 1.1196372,7.3312671 1.2441406,7.4570312 1.368644,7.5827954 1.5437381,7.6571476 1.7207031,7.6582031 L 6.8046875,7.6875 C 6.9157179,7.6884748 7.0263716,7.6443316 7.1054687,7.5664062 7.1845659,7.4884809 7.2317395,7.3786107 7.2324219,7.2675781 L 7.2363281,6.5898437 2.2519531,6.5625 a 0.0993622,0.0993622 0 0 1 -0.099609,-0.099609 l 0.00977,-1.59375 a 0.0993622,0.0993622 0 0 1 0.099609,-0.099609 H 6.3261719 V 3.6679688 H 2.2695313 a 0.0993622,0.0993622 0 0 1 -0.099609,-0.099609 l 0.00781,-1.5839844 a 0.0993622,0.0993622 0 0 1 0.099609,-0.099609 l 4.9511718,0.027344 0.00391,-0.5644532 C 7.2331781,1.2074937 7.1766245,1.0665162 7.078125,0.96679688 6.9796255,0.86707752 6.8413331,0.80956255 6.7011719,0.80859375 Z"
       inkscape:label="path2" />
    <path
       id="path2-9"
       style="stroke:#000000;stroke-width:0.30321191;paint-order:markers stroke fill;stroke-dasharray:none;stroke-opacity:1;fill:#000000;fill-opacity:1"
       inkscape:label="path2"
       transform="matrix(7.4648214,-7.4685004,7.3406,7.3442176,5.2385394,164.73418)"
       d="M 1.6484375,0.77929687 C 1.5005871,0.77832498 1.3532083,0.83747473 1.2480469,0.94140625 1.1428854,1.0453378 1.0808456,1.1919921 1.0800781,1.3398437 l -0.015625,2.875 -0.015625,2.7636719 C 1.0481006,7.1554823 1.1196372,7.3312671 1.2441406,7.4570312 1.368644,7.5827954 1.5437381,7.6571476 1.7207031,7.6582031 L 6.8046875,7.6875 C 6.9157179,7.6884748 7.0263716,7.6443316 7.1054687,7.5664062 7.1845659,7.4884809 7.2317395,7.3786107 7.2324219,7.2675781 L 7.2363281,6.5898437 2.2519531,6.5625 C 2.1968841,6.562637 2.1522071,6.51796 2.1523441,6.462891 l 0.00977,-1.59375 c -1.37e-4,-0.055069 0.04454,-0.099746 0.099609,-0.099609 l 2.8374542,-0.0387 V 3.6292691 l -2.829646,0.0387 c -0.055069,1.37e-4 -0.099746,-0.04454 -0.099609,-0.099609 l 0.00781,-1.5839844 c -1.37e-4,-0.055069 0.04454,-0.099746 0.099609,-0.099609 l 4.9511718,0.027344 0.00391,-0.5644532 C 7.2331781,1.2074937 7.1766245,1.0665162 7.078125,0.96679688 6.9796255,0.86707752 6.8413331,0.80956255 6.7011719,0.80859375 Z"
       sodipodi:nodetypes="cscccsccsccccccccccccccscc" />
    <path
       style="display:none;fill:none;fill-opacity:1;stroke:#000000;stroke-width:13.413;stroke-dasharray:none;stroke-opacity:1;paint-order:markers stroke fill"
       d="m 64.694159,125.44183 42.142821,42.00188"
       id="path3" />
    <path
       id="path1"
       style="fill:#ffffff;stroke-width:0.313;paint-order:markers stroke fill"
       inkscape:transform-center-x="-5.8788289"
       inkscape:transform-center-y="-5.7798026"
       d="m 67.497825,164.85066 -0.06754,-48.58771 49.056205,48.6035 z"
       sodipodi:nodetypes="cccc" />
    <path
       id="path4"
       style="fill:#000000;fill-opacity:1;stroke-width:0.313;paint-order:markers stroke fill"
       inkscape:transform-center-x="-3.3789966"
       inkscape:transform-center-y="-3.2824237"
       d="m 77.217632,153.51932 -0.03882,-27.59359 28.196218,27.60256 z"
       sodipodi:nodetypes="cccc" />
    <path
       id="path5"
       style="display:none;fill:#ffffff;stroke-width:0.313;paint-order:markers stroke fill"
       inkscape:transform-center-x="-5.2200898"
       inkscape:transform-center-y="-5.2099313"
       d="m 82.013594,149.42071 -0.05997,-43.7971 43.559306,43.81133 z"
       sodipodi:nodetypes="cccc" />
    <path
       d="M 49.798256,191.63553 78.702407,163.91008 67.201671,153.26886 38.378141,180.91902"
       style="stroke:#000000;stroke-width:0.0298914;paint-order:markers stroke fill"
       id="path1-7"
       sodipodi:nodetypes="cccc" />
    <path
       style="fill:#000000;fill-opacity:1;stroke:#000000;stroke-width:13.413;stroke-dasharray:none;stroke-opacity:1;paint-order:markers stroke fill"
       d="m 99.816557,131.16689 -16.39586,16.39586"
       id="path6" />
    <path
       id="path7"
       style="fill:#000000;fill-opacity:1;stroke:#000000;stroke-width:3.175;stroke-dasharray:none;stroke-opacity:1;paint-order:markers stroke fill"
       inkscape:label="path2"
       d="m 101.50085,230.97607 c -1.11081,1.09709 -1.776773,2.63219 -1.798864,4.18089 -0.02209,1.54869 0.591324,3.0891 1.670914,4.18068 l 20.98759,21.23133 20.17037,20.4137 c 1.29361,1.30511 3.11798,2.06184 4.97056,2.05563 1.85258,-0.006 3.70542,-0.76785 5.03418,-2.08176 l 38.16609,-37.75457 c 0.83598,-0.82208 1.33795,-1.97269 1.35638,-3.13573 0.0184,-1.16304 -0.43594,-2.32226 -1.2459,-3.14281 l -4.94581,-5.0066 -7.19257,7.00097 -30.21562,30.02402 c -0.41008,0.41229 -1.07154,0.41784 -1.47476,0.0124 l -11.62615,-11.77781 c -0.40526,-0.40342 -0.39971,-1.06521 0.0124,-1.47548 l 19.30951,-19.35908 -8.08614,-8.09012 -19.25122,19.30076 c -0.41007,0.41229 -1.07153,0.41784 -1.47475,0.0124 l -11.5691,-11.69145 c -0.40526,-0.40342 -0.39971,-1.06521 0.0124,-1.47548 l 37.16033,-36.77701 -4.11424,-4.17467 c -1.02325,-1.03503 -2.48027,-1.64803 -3.94755,-1.64475 -1.46728,0.003 -2.9218,0.61372 -3.97519,1.6534 z"
       sodipodi:nodetypes="cscccsccscccccccccccccccscc" />
    <path
       id="path8"
       style="display:none;fill:#ffffff;stroke-width:0.313;paint-order:markers stroke fill"
       inkscape:transform-center-x="-5.8788289"
       inkscape:transform-center-y="-5.7798026"
       d="m 145.73434,237.68058 -0.0675,-48.58771 49.0562,48.6035 z"
       sodipodi:nodetypes="cccc" />
    <path
       id="path9"
       style="fill:#000000;fill-opacity:1;stroke-width:0.313;paint-order:markers stroke fill"
       inkscape:transform-center-x="-2.2943371"
       inkscape:transform-center-y="2.136937"
       d="m 151.0351,204.02548 19.3447,0.0258 -19.40788,17.83911 z"
       sodipodi:nodetypes="cccc" />
    <path
       d="M 128.03477,264.46545 156.93892,236.74 145.43818,226.09878 116.61465,253.74894"
       style="display:none;stroke:#000000;stroke-width:0.0298914;paint-order:markers stroke fill"
       id="path10"
       sodipodi:nodetypes="cccc" />
    <path
       style="fill:#000000;fill-opacity:1;stroke:#000000;stroke-width:11.013;stroke-dasharray:none;stroke-opacity:1;paint-order:markers stroke fill"
       d="M 171.72073,224.73087 157.1013,209.82066"
       id="path11"
       sodipodi:nodetypes="cc" />
  </g>
</svg>
