<?xml version="1.0" encoding="UTF-8" standalone="no"?>
<!-- Created with Inkscape (http://www.inkscape.org/) -->

<svg
   width="32"
   height="32"
   viewBox="0 0 8.4666665 8.4666666"
   version="1.1"
   id="svg1"
   sodipodi:docname="editme-epub.svg"
   inkscape:version="1.3.2 (091e20e, 2023-11-25)"
   xmlns:inkscape="http://www.inkscape.org/namespaces/inkscape"
   xmlns:sodipodi="http://sodipodi.sourceforge.net/DTD/sodipodi-0.dtd"
   xmlns="http://www.w3.org/2000/svg"
   xmlns:svg="http://www.w3.org/2000/svg">
  <sodipodi:namedview
     id="namedview1"
     pagecolor="#ffffff"
     bordercolor="#000000"
     borderopacity="0.25"
     inkscape:showpageshadow="2"
     inkscape:pageopacity="0.0"
     inkscape:pagecheckerboard="0"
     inkscape:deskcolor="#d1d1d1"
     inkscape:document-units="px"
     showgrid="false"
     inkscape:zoom="9.6568869"
     inkscape:cx="20.658832"
     inkscape:cy="23.713646"
     inkscape:window-width="1440"
     inkscape:window-height="847"
     inkscape:window-x="0"
     inkscape:window-y="25"
     inkscape:window-maximized="1"
     inkscape:current-layer="layer2" />
  <defs
     id="defs1">
    <inkscape:path-effect
       effect="offset"
       id="path-effect1"
       is_visible="true"
       lpeversion="1.2"
       linejoin_type="bevel"
       unit="px"
       offset="1.7"
       miter_limit="4"
       attempt_force_join="false"
       update_on_knot_move="true" />
    <inkscape:path-effect
       effect="fillet_chamfer"
       id="path-effect3"
       is_visible="true"
       lpeversion="1"
       nodesatellites_param="F,0,0,1,0,0.66383041,0,1 @ F,0,0,1,0,0,0,1 @ F,0,0,1,0,0.7758912,0,1 @ F,0,0,1,0,0.52266453,0,1 @ F,0,0,1,0,0,0,1 @ F,0,0,1,0,0,0,1 @ F,0,0,1,0,0,0,1 @ F,0,0,1,0,0,0,1 @ F,0,0,1,0,0,0,1 @ F,0,0,1,0,0,0,1 @ F,0,0,1,0,0,0,1 @ F,0,0,1,0,0,0,1 @ F,0,0,1,0,0.63536772,0,1"
       radius="0"
       unit="px"
       method="auto"
       mode="F"
       chamfer_steps="1"
       flexible="false"
       use_knot_distance="true"
       apply_no_radius="true"
       apply_with_radius="true"
       only_selected="false"
       hide_knots="false" />
  </defs>
  <g
     inkscape:label="Layer 1"
     inkscape:groupmode="layer"
     id="layer1">
    <path
       id="path2"
       style="color:#000000;fill:#000000;stroke:#000000;stroke-width:0.384946;stroke-dasharray:none;stroke-opacity:1;paint-order:markers stroke fill"
       sodipodi:type="inkscape:offset"
       inkscape:radius="-0.099352263"
       inkscape:original="M 1.6484375 0.6796875 A 0.66361549 0.66361549 0 0 0 0.98046875 1.3398438 L 0.96484375 4.2148438 L 0.94921875 6.9785156 A 0.7761202 0.7761202 0 0 0 1.7207031 7.7578125 L 6.8046875 7.7871094 A 0.52276394 0.52276394 0 0 0 7.3320312 7.2675781 L 7.3359375 6.4902344 L 2.2519531 6.4628906 L 2.2617188 4.8691406 L 6.4257812 4.8691406 L 6.4257812 3.5683594 L 2.2695312 3.5683594 L 2.2773438 1.984375 L 7.328125 2.0117188 L 7.3320312 1.3476562 A 0.63525939 0.63525939 0 0 0 6.7011719 0.70898438 L 1.6484375 0.6796875 z "
       transform="matrix(0.57979336,-0.57979337,0.57014507,0.57014507,-0.75690429,4.2596282)"
       d="M 1.6484375,0.77929687 C 1.5005871,0.77832498 1.3532083,0.83747473 1.2480469,0.94140625 1.1428854,1.0453378 1.0808456,1.1919921 1.0800781,1.3398437 l -0.015625,2.875 -0.015625,2.7636719 C 1.0481006,7.1554823 1.1196372,7.3312671 1.2441406,7.4570312 1.368644,7.5827954 1.5437381,7.6571476 1.7207031,7.6582031 L 6.8046875,7.6875 C 6.9157179,7.6884748 7.0263716,7.6443316 7.1054687,7.5664062 7.1845659,7.4884809 7.2317395,7.3786107 7.2324219,7.2675781 L 7.2363281,6.5898437 2.2519531,6.5625 a 0.0993622,0.0993622 0 0 1 -0.099609,-0.099609 l 0.00977,-1.59375 a 0.0993622,0.0993622 0 0 1 0.099609,-0.099609 H 6.3261719 V 3.6679688 H 2.2695313 a 0.0993622,0.0993622 0 0 1 -0.099609,-0.099609 l 0.00781,-1.5839844 a 0.0993622,0.0993622 0 0 1 0.099609,-0.099609 l 4.9511718,0.027344 0.00391,-0.5644532 C 7.2331781,1.2074937 7.1766245,1.0665162 7.078125,0.96679688 6.9796255,0.86707752 6.8413331,0.80956255 6.7011719,0.80859375 Z"
       inkscape:label="path2" />
  </g>
  <g
     inkscape:groupmode="layer"
     id="layer2"
     inkscape:label="Layer 2" />
</svg>
